<?xml version="1.0" standalone="no"?>
<!DOCTYPE svg PUBLIC "-//W3C//DTD SVG 20010904//EN"
 "http://www.w3.org/TR/2001/REC-SVG-20010904/DTD/svg10.dtd">
<svg version="1.0" xmlns="http://www.w3.org/2000/svg"
 width="70.000000pt" height="70.000000pt" viewBox="0 0 70.000000 70.000000"
 preserveAspectRatio="xMidYMid meet">
<metadata>
Created by potrace 1.11, written by Peter Selinger 2001-2013
</metadata>
<g transform="translate(0.000000,70.000000) scale(0.100000,-0.100000)"
fill="#000000" stroke="none">
<path d="M317 627 c-36 -90 -57 -212 -57 -333 0 -88 3 -105 18 -113 9 -6 14
-11 10 -11 -18 0 -61 22 -103 54 -53 41 -64 43 -95 18 -19 -15 -22 -24 -16
-48 7 -25 9 -26 17 -11 16 27 30 21 90 -42 43 -46 65 -61 95 -67 47 -8 64 -20
64 -45 0 -11 5 -19 10 -19 6 0 10 8 10 19 0 25 17 37 65 46 32 5 52 19 96 67
40 43 61 59 73 55 9 -4 16 -11 16 -17 0 -6 4 -8 10 -5 20 12 10 54 -15 71 -29
19 -43 15 -110 -35 -22 -16 -51 -32 -65 -36 -23 -7 -24 -6 -6 7 17 14 18 26
13 154 -3 83 -12 163 -22 199 -21 74 -55 155 -65 155 -4 0 -19 -29 -33 -63z
m61 -413 c12 -20 17 -34 10 -32 -7 2 -17 14 -23 26 -5 12 -13 22 -17 22 -5 0
-8 5 -8 10 0 19 15 9 38 -26z m-48 -19 c-7 -8 -17 -15 -23 -15 -5 0 -2 9 8 20
21 23 35 19 15 -5z"/>
<path d="M93 633 c-22 -8 -14 -20 15 -26 38 -8 80 -52 88 -94 4 -21 -2 -76
-15 -141 l-22 -107 43 -39 43 -38 7 143 c3 79 11 158 16 176 19 59 -55 134
-130 132 -18 0 -39 -3 -45 -6z"/>
<path d="M495 621 c-17 -10 -39 -31 -49 -46 -16 -25 -17 -35 -7 -96 6 -37 11
-118 11 -179 l0 -111 28 20 c73 55 68 37 43 165 -19 95 -21 120 -11 150 13 40
62 86 91 86 23 0 25 15 3 24 -30 11 -79 6 -109 -13z"/>
</g>
</svg>
