<svg xmlns="http://www.w3.org/2000/svg" viewBox="0 0 103 120.88" fill="white"><defs><style>.cls-1{font-size:15.61px;font-family:AvenirNext-Bold, Avenir Next;font-weight:700;}</style></defs><g id="Layer_2" data-name="Layer 2"><g id="icons"><path d="M49.78,25.29v4.45c-22.17.93-22.45,19.84-22.45,20V51.5h3.82c-1.34,17.69,3.74,27.19,8.39,32.09a21.83,21.83,0,0,0,11.72,6.67l.24,0,.24,0a21.83,21.83,0,0,0,11.72-6.67c4.65-4.9,9.73-14.4,8.39-32.09h3.82V49.78c0-.2-.28-19.11-22.45-20V25.29Zm1.73,61.52c-2.2-.45-19.33-5-16.92-35.31H68.41C70.85,82,53.87,86.35,51.51,86.81ZM72.07,48.06H30.92c.61-4.27,3.84-14.93,20.58-14.93S71.43,43.78,72.07,48.06Z"/><path d="M50.23,82.65l2-2.81a22.24,22.24,0,0,1-2.6-2.18l-2.41,2.46A26.8,26.8,0,0,0,50.23,82.65Z"/><path d="M44.57,77.11,47.31,75a30.45,30.45,0,0,1-5.12-11.37l-3.34.79A33.47,33.47,0,0,0,44.57,77.11Z"/><rect x="61.92" y="42.26" width="3.44" height="4.08" transform="translate(1.47 90.64) rotate(-71.54)"/><rect x="55.54" y="37.86" width="4.08" height="3.44" transform="translate(16.76 96.28) rotate(-88.76)"/><rect x="47.62" y="40.26" width="3.44" height="4.08" transform="translate(-7.02 74.65) rotate(-70.46)"/><rect x="37.63" y="39.09" width="4.08" height="3.44" transform="translate(-16.59 32.24) rotate(-37.15)"/><text class="cls-1" transform="matrix(0.69, -0.72, 0.72, 0.69, 15.37, 31.24)">A</text><text class="cls-1" transform="translate(23.6 22.91) rotate(-33.44)">L</text><text class="cls-1" transform="translate(30.89 18.15) rotate(-22.22)">L</text><text class="cls-1" transform="matrix(0.98, -0.18, 0.18, 0.98, 38.89, 14.86)">E</text><text class="cls-1" transform="translate(48.57 13.11) rotate(2.83)">R</text><text class="cls-1" transform="translate(59.13 13.55) rotate(17.45)">G</text><text class="cls-1" transform="translate(70.75 17.41) rotate(31.63)">E</text><text class="cls-1" transform="matrix(0.7, 0.72, -0.72, 0.7, 79.12, 22.39)">N</text><text class="cls-1" transform="translate(28.75 108.66) rotate(19.47)">F</text><text class="cls-1" transform="translate(39.99 112.37) rotate(6.52)">R</text><text class="cls-1" transform="translate(53.12 113.49) rotate(-6.48)">E</text><text class="cls-1" transform="translate(65.28 111.8) rotate(-19.18)">E</text><path d="M23.93,99.39h0a1.5,1.5,0,0,0-.42-2A48.44,48.44,0,0,1,7.4,37.62a1.5,1.5,0,0,0-.64-2h0a1.48,1.48,0,0,0-2,.68A51.39,51.39,0,0,0,21.8,99.83,1.5,1.5,0,0,0,23.93,99.39Z"/><path d="M95.47,34.16a1.5,1.5,0,0,0-.58,2A48.44,48.44,0,0,1,79.7,97.22a1.52,1.52,0,0,0-.41,2h0a1.49,1.49,0,0,0,2.13.44A51.44,51.44,0,0,0,97.56,34.77a1.49,1.49,0,0,0-2.08-.61Z"/></g></g></svg>