<svg xmlns="http://www.w3.org/2000/svg" viewBox="0 0 103 120.87" fill="white"><defs><style>.cls-1{font-size:15.61px;font-family:AvenirNext-Bold, Avenir Next;font-weight:700;}</style></defs><g id="Layer_2" data-name="Layer 2"><g id="icons"><path d="M35.61,82.47c7.79,0,12.75-1.33,16-4.36,2.81,3.37,7.39,4.61,11,4.61,11.52,0,19-5.65,21-15.9,1.06-5.31-.53-8.63-2.06-10.49-2.37-2.9-6.45-4.56-11.19-4.56a19.83,19.83,0,0,0-4.18.46,21.59,21.59,0,0,0,.87-2.68c1.1-4.4.48-8.26-1.8-11.17-2.77-3.56-7.89-5.52-14.4-5.52h-.73c-4.7,0-11.79-.07-15.43,10.87-1.22,3.66-1.29,6.71-.2,9.27-6.1,1.18-8.69,4.14-12.47,9.8-3.24,4.86-3.94,9.55-2,13.21C21.67,79,25.64,82.47,35.61,82.47ZM78.8,58.63c1.49,1.82,1.93,4.33,1.3,7.48-1.72,8.61-7.61,13-17.48,13-3.79,0-7.23-1.6-8.77-4.09s-1.29-6,.77-10.13c2.14-4.28,4.14-6.44,11-8.72a15.29,15.29,0,0,1,4.81-.75C74.06,55.4,77.12,56.58,78.8,58.63ZM38.18,44.87c2.81-8.44,7.26-8.41,12-8.39h.75c5.37,0,9.47,1.47,11.55,4.13,1.58,2,2,4.74,1.13,8.06a14.52,14.52,0,0,1-2.26,5.13l.07.05a19.87,19.87,0,0,0-5.84,3.53c-1.81-2.47-5.43-5-12.71-5-1.64,0-3.11,0-4.45.14C37.16,50.64,37.08,48.15,38.18,44.87ZM25.09,64.81C29.66,58,31.48,56,42.84,56c3.73,0,8.4.77,10.24,4.26a29.79,29.79,0,0,0-1.71,3c-2.57,5.15-2.47,8.95-1.57,11.59-1.83,2.06-5.15,4-14.19,4-6.38,0-10.75-1.62-12.33-4.55C22,71.86,22.63,68.5,25.09,64.81Z"/><path d="M64.25,76.22C76.33,73.8,76.47,66.15,76.47,65.83l-3.62,0c0,.2-.3,5.06-9.32,6.86Z"/><path d="M47.21,43.87c4.86-1.55,9.87,1.25,9.92,1.28L58.94,42c-.26-.15-6.42-3.64-12.83-1.6-2.86.91-4,4.8-4.22,5.57l3.51.93C45.69,45.81,46.54,44.08,47.21,43.87Z"/><path d="M34.78,75.05a50.45,50.45,0,0,0,10.13-.79l-.8-3.54a48.16,48.16,0,0,1-9.34.7h0a16.23,16.23,0,0,1-5.48-1L27.89,73.8a19.33,19.33,0,0,0,6.86,1.25Z"/><text class="cls-1" transform="translate(16.82 29.42) rotate(-43.76)">C</text><text class="cls-1" transform="translate(24.71 21.83) rotate(-29.47)">A</text><text class="cls-1" transform="translate(34.93 16.25) rotate(-15.94)">F</text><text class="cls-1" transform="translate(44.01 13.71) rotate(-3.81)">F</text><text class="cls-1" transform="translate(53.39 13.1) rotate(8.42)">E</text><text class="cls-1" transform="matrix(0.95, 0.32, -0.32, 0.95, 63.32, 14.82)">I</text><text class="cls-1" transform="translate(68.57 16.24) rotate(30.29)">N</text><text class="cls-1" transform="translate(79.31 22.76) rotate(44.53)">E</text><text class="cls-1" transform="translate(28.75 108.65) rotate(19.47)">F</text><text class="cls-1" transform="translate(39.99 112.36) rotate(6.52)">R</text><text class="cls-1" transform="translate(53.12 113.49) rotate(-6.48)">E</text><text class="cls-1" transform="translate(65.28 111.8) rotate(-19.18)">E</text><path d="M23.86,99.33a1.51,1.51,0,0,0-.42-2,48.42,48.42,0,0,1-14.38-63,1.51,1.51,0,0,0-.49-2h0a1.48,1.48,0,0,0-2.1.52A51.41,51.41,0,0,0,21.73,99.78a1.5,1.5,0,0,0,2.13-.45Z"/><path d="M94.59,32.61a1.5,1.5,0,0,0-.51,2A48.41,48.41,0,0,1,79.77,97.17a1.51,1.51,0,0,0-.41,2h0a1.5,1.5,0,0,0,2.13.44A51.42,51.42,0,0,0,96.7,33.14a1.51,1.51,0,0,0-2.11-.54Z"/></g></g></svg>