<svg xmlns="http://www.w3.org/2000/svg" viewBox="0 0 103 120.89" fill="white"><defs><style>.cls-1{font-size:15.61px;font-family:AvenirNext-Bold, Avenir Next;font-weight:700;}</style></defs><g id="Layer_2" data-name="Layer 2"><g id="icons"><rect x="53.55" y="47.87" width="6.15" height="3.46"/><rect x="45.35" y="41.71" width="6.15" height="3.46"/><path d="M65.08,48.43C63.59,36.26,58.5,25.3,51.5,25.3S39.66,36.1,38.05,47.52a36.64,36.64,0,0,0-4.54-1.64l-2.2-.63v2.29c0,31.17,5.47,42.76,20.19,42.76S71.69,78.71,71.69,47.54V44.75L69.19,46A33.13,33.13,0,0,0,65.08,48.43ZM44.32,37h5.13V33.51H46c1.69-3,3.63-4.75,5.52-4.75,2.75,0,5.47,3.55,7.47,8.85H55.6v3.46h4.5a55.83,55.83,0,0,1,2,14.68v.32H57.65v3.46h4.28c-.48,6.12-2.15,11.1-4.73,14.09-2.54-13.09-9-20.39-15.88-24.43A48.56,48.56,0,0,1,44.32,37ZM51.5,86.84c-10.34,0-16.43-6.11-16.72-36.92C48,54.74,54.9,67.33,54.9,86.52h.28A19,19,0,0,1,51.5,86.84Zm6.85-1.39a72.51,72.51,0,0,0-.5-7.68c4.89-3.8,7.69-11.79,7.69-22,0-1.08,0-2.17-.1-3.25a23.54,23.54,0,0,1,2.78-2C67.94,73.28,64.44,82.35,58.35,85.45Z"/><text class="cls-1" transform="matrix(0.92, -0.39, 0.39, 0.92, 29.01, 19.04)">C</text><text class="cls-1" transform="matrix(0.99, -0.13, 0.13, 0.99, 38.9, 14.62)">O</text><text class="cls-1" transform="matrix(0.99, 0.13, -0.13, 0.99, 52.21, 13.03)">R</text><text class="cls-1" transform="matrix(0.92, 0.38, -0.38, 0.92, 62.7, 14.3)">N</text><text class="cls-1" transform="translate(28.75 108.67) rotate(19.47)">F</text><text class="cls-1" transform="translate(39.99 112.38) rotate(6.52)">R</text><text class="cls-1" transform="translate(53.12 113.5) rotate(-6.48)">E</text><text class="cls-1" transform="translate(65.28 111.81) rotate(-19.18)">E</text><path d="M82.64,18.82h0a1.49,1.49,0,0,0,.24,2,48.44,48.44,0,0,1-3.11,76.33,1.5,1.5,0,0,0-.41,2h0a1.5,1.5,0,0,0,2.13.43A51.43,51.43,0,0,0,84.8,18.56,1.49,1.49,0,0,0,82.64,18.82Z"/><path d="M23.86,99.35a1.5,1.5,0,0,0-.42-2,48.43,48.43,0,0,1-3.21-76.56,1.5,1.5,0,0,0,.25-2.05h0a1.51,1.51,0,0,0-2.16-.26,51.42,51.42,0,0,0,3.41,81.33,1.49,1.49,0,0,0,2.13-.44Z"/></g></g></svg>