<svg xmlns="http://www.w3.org/2000/svg" viewBox="0 0 103 120.89" fill="white"><defs><style>.cls-1{font-size:15.61px;font-family:AvenirNext-Bold, Avenir Next;font-weight:700;}</style></defs><g id="Layer_2" data-name="Layer 2"><g id="icons"><path d="M53.29,51.39c2.47,0,6.68-.47,9.91-3.26,2.78-2.42,4.2-6,4.23-10.64h0V30.33H64v5.39c-5.37.26-8.72,1.69-10.8,3.39V25.3H49.79V39.11C47.71,37.41,44.36,36,39,35.72V30.33H35.57v7.16h0c0,4.64,1.45,8.22,4.23,10.64,3.23,2.79,7.44,3.26,9.91,3.26h.08v4c-2.29-1.88-6.12-3.43-12.51-3.43H35.57v1.71c0,4.69,1.42,8.3,4.23,10.74,3.23,2.79,7.44,3.26,9.91,3.26h.08v4c-2.29-1.88-6.12-3.43-12.51-3.43H35.57v1.71c0,4.69,1.42,8.3,4.23,10.74,3.23,2.79,7.44,3.26,9.91,3.26h.08V90.3h3.42V83.89h.08c2.47,0,6.68-.47,9.91-3.26,2.81-2.44,4.23-6,4.23-10.74V68.18H65.72c-6.39,0-10.22,1.55-12.51,3.43v-4h.08c2.47,0,6.68-.47,9.91-3.26,2.81-2.44,4.23-6,4.23-10.74V51.93H65.72c-6.39,0-10.22,1.55-12.51,3.43v-4ZM63.92,39.15a9.33,9.33,0,0,1-3,6.38C58.53,47.65,55.13,48,53.21,48V45.54C53.22,45.29,53.52,39.73,63.92,39.15ZM42.05,45.54a9.37,9.37,0,0,1-3-6.39c10.4.58,10.7,6.14,10.71,6.37V48C47.88,48,44.5,47.67,42.05,45.54Zm0,16.25a9.37,9.37,0,0,1-3-6.39c10.4.58,10.7,6.14,10.71,6.37v2.45C47.88,64.23,44.5,63.92,42.05,61.79Zm0,16.25a9.33,9.33,0,0,1-3-6.39c10.4.58,10.7,6.14,10.71,6.37v2.45C47.88,80.49,44.5,80.17,42.05,78Zm21.87-6.39A9.33,9.33,0,0,1,61,78c-2.44,2.12-5.84,2.44-7.76,2.44V78C53.21,78,53.34,72.23,63.92,71.65Zm0-16.25a9.33,9.33,0,0,1-3,6.38c-2.43,2.12-5.84,2.44-7.76,2.44V61.77C53.21,61.71,53.34,56,63.92,55.4Z"/><text class="cls-1" transform="translate(22.1 23.9) rotate(-33.31)">G</text><text class="cls-1" transform="translate(32.51 17.37) rotate(-19.89)">L</text><text class="cls-1" transform="translate(40.18 14.4) rotate(-7.15)">U</text><text class="cls-1" transform="translate(51.93 13.1) rotate(6.3)">T</text><text class="cls-1" transform="translate(61.34 14.16) rotate(18.78)">E</text><text class="cls-1" transform="matrix(0.84, 0.55, -0.55, 0.84, 70.6, 17.16)">N</text><text class="cls-1" transform="translate(28.75 108.67) rotate(19.47)">F</text><text class="cls-1" transform="translate(39.99 112.38) rotate(6.52)">R</text><text class="cls-1" transform="translate(53.12 113.51) rotate(-6.48)">E</text><text class="cls-1" transform="translate(65.28 111.82) rotate(-19.18)">E</text><path d="M89.38,25.33h0a1.5,1.5,0,0,0-.14,2.06,48.42,48.42,0,0,1-9.47,69.8,1.51,1.51,0,0,0-.41,2h0a1.49,1.49,0,0,0,2.13.44A51.4,51.4,0,0,0,91.54,25.48,1.48,1.48,0,0,0,89.38,25.33Z"/><path d="M23.86,99.36a1.52,1.52,0,0,0-.42-2,48.39,48.39,0,0,1-9.61-70,1.52,1.52,0,0,0-.14-2.07h0a1.5,1.5,0,0,0-2.17.15A51.4,51.4,0,0,0,21.73,99.8a1.51,1.51,0,0,0,2.13-.44Z"/></g></g></svg>