<svg xmlns="http://www.w3.org/2000/svg" viewBox="0 0 103.07 120.88" fill="white"><defs><style>.cls-1{font-size:15.61px;}.cls-1,.cls-2{font-family:AvenirNext-Bold, Avenir Next;font-weight:700;}.cls-2{font-size:50px;letter-spacing:-0.01em;}</style></defs><g id="Layer_2" data-name="Layer 2"><g id="icons"><text class="cls-1" transform="translate(21.34 24.64) rotate(-35.25)">K</text><text class="cls-1" transform="translate(29.94 18.31) rotate(-20.15)">O</text><text class="cls-1" transform="matrix(1, -0.09, 0.09, 1, 42.67, 13.95)">S</text><text class="cls-1" transform="translate(52.14 12.92) rotate(8.37)">H</text><text class="cls-1" transform="translate(64.14 14.87) rotate(22.51)">E</text><text class="cls-1" transform="translate(73.2 18.61) rotate(35.68)">R</text><text class="cls-1" transform="translate(7.3 91.83) rotate(46.8)">C</text><text class="cls-1" transform="matrix(0.83, 0.55, -0.55, 0.83, 17.02, 101.57)">E</text><text class="cls-1" transform="matrix(0.94, 0.35, -0.35, 0.94, 27.47, 108.13)">R</text><text class="cls-1" transform="translate(39.77 112.26) rotate(7.42)">T</text><text class="cls-1" transform="translate(51.25 113.37) rotate(-2.27)">I</text><text class="cls-1" transform="translate(58.75 113.03) rotate(-12.06)">F</text><text class="cls-1" transform="matrix(0.93, -0.37, 0.37, 0.93, 69.91, 110.25)">I</text><text class="cls-1" transform="matrix(0.85, -0.53, 0.53, 0.85, 76.89, 107.41)">E</text><text class="cls-1" transform="matrix(0.69, -0.72, 0.72, 0.69, 87.3, 100.66)">D</text><text class="cls-2" transform="translate(33.69 75.31)">K</text><path d="M90.78,27a1.5,1.5,0,0,0-.22,2.05,48.34,48.34,0,0,1,4.6,49.78,1.51,1.51,0,0,0,.61,2h0a1.5,1.5,0,0,0,2.07-.63A51.33,51.33,0,0,0,93,27.28,1.51,1.51,0,0,0,90.78,27Z"/><path d="M7.08,80.57a1.51,1.51,0,0,0,.63-2A48.34,48.34,0,0,1,13,28.4a1.5,1.5,0,0,0-.19-2h0a1.5,1.5,0,0,0-2.17.2A51.34,51.34,0,0,0,5,79.92a1.48,1.48,0,0,0,2.06.65Z"/></g></g></svg>