<svg xmlns="http://www.w3.org/2000/svg" viewBox="0 0 103 109.29" fill="white"><defs><style>.cls-1{font-size:15.61px;font-family:AvenirNext-Bold, Avenir Next;font-weight:700;}</style></defs><g id="Layer_2" data-name="Layer 2"><g id="icons"><path d="M68.36,35.37c-3.53,0-6.31.66-8.26,2-3.85,2.56-4.9,5.6-4.54,8.19a15.1,15.1,0,0,0-3.11,3.79c-.49-3.46-1.7-8.08-4.74-10.52,1.63-3.07,1.5-7.56-3.86-11.25-2.16-1.49-5.3-2.24-9.34-2.24a32.87,32.87,0,0,0-5.24.41l-1.74.3.33,1.73c.08.39,1.89,9.53,6.9,13A11.13,11.13,0,0,0,41,43h0a7.23,7.23,0,0,0,4.46-1.51c3.09,2.39,3.82,9.36,3.82,12.13V56H36.63v3.47h4.44v20.9c0,3.45,2.08,10,10,10s10-6.52,10-10V59.42h4.44V56H53.29a19.34,19.34,0,0,1,3.7-7,7,7,0,0,0,5.69,3h0a10.55,10.55,0,0,0,5.78-2c4.74-3.15,6.57-11.63,6.65-12l.36-1.73-1.73-.33A31.42,31.42,0,0,0,68.36,35.37ZM41,39.48h0a7.94,7.94,0,0,1-4.3-1.62c-2.53-1.75-4.21-6.13-5-9,.79-.08,1.76-.14,2.81-.14,3.28,0,5.83.57,7.37,1.64,3.27,2.25,4.16,4.82,2.5,7.23A3.94,3.94,0,0,1,41,39.48ZM49.3,59.42v6.82H44.54V59.42ZM51,86.82c-6.26,0-6.5-5.84-6.5-6.5V69.71H49.3v8.55h3.47V69.71h4.77V80.32C57.54,81,57.35,86.82,51,86.82Zm6.5-20.58H52.77V59.42h4.77Zm9-19.23a7.31,7.31,0,0,1-3.86,1.41h0a3.47,3.47,0,0,1-2.89-1.51L59,44.38c.12-1.87,1.82-3.34,3.07-4.17s3.55-1.37,6.34-1.37c1.08,0,2.08.07,2.88.15C70.44,41.6,68.85,45.47,66.54,47Z"/><text class="cls-1" transform="translate(15.23 31.32) rotate(-45.98)">N</text><text class="cls-1" transform="matrix(0.87, -0.49, 0.49, 0.87, 23.81, 22.36)">O</text><text class="cls-1" transform="translate(35.44 15.84) rotate(-13)">N</text><text class="cls-1" transform="translate(47.95 13.38) rotate(-1.27)">-</text><text class="cls-1" transform="matrix(0.98, 0.18, -0.18, 0.98, 53.54, 12.96)">G</text><text class="cls-1" transform="matrix(0.89, 0.46, -0.46, 0.89, 65.43, 14.88)">M</text><text class="cls-1" transform="translate(78.52 21.84) rotate(45.43)">O</text><path d="M101.86,47.13c0-.2-.09-.41-.13-.61-.11-.47-.22-.94-.34-1.41a50.72,50.72,0,0,0-3.75-10.17,1.49,1.49,0,0,0-2.07-.62h0a1.49,1.49,0,0,0-.58,2,48.45,48.45,0,0,1,3.26,8.56l.18.65c.15.58.29,1.15.42,1.73,0,.16.07.31.1.46a49.1,49.1,0,0,1,1,7.1,48.5,48.5,0,1,1-96.9,3q0-1.41.09-2.79s0-.09,0-.14a48.35,48.35,0,0,1,.93-7c0-.11,0-.23.07-.34.13-.63.28-1.25.44-1.87.11-.41.22-.81.34-1.21a47.47,47.47,0,0,1,3-7.94,1.5,1.5,0,0,0-2.68-1.35,50.33,50.33,0,0,0-3.38,8.94h0l0,.16c-.09.33-.17.67-.26,1s-.21.88-.31,1.32-.14.62-.2.93c-.1.51-.2,1-.29,1.54l-.12.75C.52,50.54.42,51.26.33,52a.88.88,0,0,1,0,.17A51.5,51.5,0,1,0,103,57.79,50.6,50.6,0,0,0,101.86,47.13Z"/></g></g></svg>