<svg xmlns="http://www.w3.org/2000/svg" viewBox="0 0 103 120.89" fill="white"><defs><style>.cls-1{font-size:15.61px;font-family:AvenirNext-Bold, Avenir Next;font-weight:700;}</style></defs><g id="Layer_2" data-name="Layer 2"><g id="icons"><path d="M31.31,88.7l.12,1.6H71.57l.12-1.6c1.87-26.21-9.49-39.12-12.31-41.9V37h.33a5.67,5.67,0,0,0,5.83-5.83,5.68,5.68,0,0,0-5.83-5.84H43.29a5.68,5.68,0,0,0-5.83,5.84A5.67,5.67,0,0,0,43.29,37h.33V46.8C40.8,49.58,29.44,62.49,31.31,88.7Zm37-1.85H34.66a61.46,61.46,0,0,1,2.52-21.72,6,6,0,0,0,1.18-1c.47-.48.55-.52.83-.52s.36,0,.83.52a4.27,4.27,0,0,0,6.55,0c.47-.48.55-.52.83-.52s.36,0,.83.52a4.26,4.26,0,0,0,6.54,0c.47-.48.55-.52.83-.52s.36,0,.83.52a4.27,4.27,0,0,0,6.55,0c.47-.48.55-.52.83-.52s.36,0,.83.52a6,6,0,0,0,1.18,1A61.46,61.46,0,0,1,68.34,86.85ZM40.92,31.14a2.22,2.22,0,0,1,2.37-2.38h16.4a2.23,2.23,0,0,1,2.39,2.38,2.22,2.22,0,0,1-2.39,2.37H43.29A2.2,2.2,0,0,1,40.92,31.14Zm15,5.83V48.34l.59.52c.08.06,4.11,3.66,7.46,11.33h-.17a4.41,4.41,0,0,0-3.28,1.53c-.47.47-.54.52-.82.52s-.36,0-.83-.52a4.41,4.41,0,0,0-3.28-1.53,4.37,4.37,0,0,0-3.27,1.53c-.47.47-.55.52-.83.52s-.36,0-.83-.52a4.37,4.37,0,0,0-3.27-1.53,4.41,4.41,0,0,0-3.28,1.53c-.47.47-.55.52-.83.52s-.36,0-.83-.52a4.37,4.37,0,0,0-3.27-1.53H39c3.35-7.67,7.38-11.27,7.45-11.33l.6-.52V37Z"/><rect x="45.07" y="70.72" width="3.46" height="4.1" transform="translate(-37.75 54.4) rotate(-45)"/><rect x="53.27" y="78.92" width="3.46" height="4.1" transform="translate(-41.15 62.62) rotate(-45.01)"/><rect x="58.42" y="70.89" width="4.1" height="3.46" transform="translate(-34.02 74.17) rotate(-51.15)"/><rect x="38.43" y="79.1" width="4.1" height="3.46" transform="translate(-47.86 61.63) rotate(-51.14)"/><text class="cls-1" transform="matrix(0.76, -0.65, 0.65, 0.76, 18.96, 27.15)">S</text><text class="cls-1" transform="translate(25.99 20.77) rotate(-26.12)">O</text><text class="cls-1" transform="translate(38.24 15.14) rotate(-11.92)">L</text><text class="cls-1" transform="translate(45.94 13.42) rotate(-0.93)">V</text><text class="cls-1" transform="translate(56.86 13.4) rotate(12.91)">E</text><text class="cls-1" transform="translate(66.38 15.43) rotate(27.3)">N</text><text class="cls-1" transform="translate(77.45 21.4) rotate(41.33)">T</text><text class="cls-1" transform="translate(28.75 108.67) rotate(19.47)">F</text><text class="cls-1" transform="translate(39.99 112.38) rotate(6.52)">R</text><text class="cls-1" transform="translate(53.12 113.51) rotate(-6.48)">E</text><text class="cls-1" transform="translate(65.28 111.82) rotate(-19.18)">E</text><path d="M93.06,30.17h0a1.5,1.5,0,0,0-.39,2,48.43,48.43,0,0,1-12.9,65,1.51,1.51,0,0,0-.41,2h0a1.49,1.49,0,0,0,2.13.44,51.42,51.42,0,0,0,13.7-69.07A1.5,1.5,0,0,0,93.06,30.17Z"/><path d="M23.86,99.35a1.51,1.51,0,0,0-.42-2,48.42,48.42,0,0,1-13-65.24,1.51,1.51,0,0,0-.39-2h0a1.51,1.51,0,0,0-2.14.41A51.43,51.43,0,0,0,21.73,99.8a1.5,1.5,0,0,0,2.13-.45Z"/></g></g></svg>