<svg xmlns="http://www.w3.org/2000/svg" viewBox="0 0 115.26 120.84" fill="white"><defs><style>.cls-1{font-size:15.61px;font-family:AvenirNext-Bold, Avenir Next;font-weight:700;}</style></defs><g id="Layer_2" data-name="Layer 2"><g id="icons"><path d="M58.69,26.3l-1.13-1-1.13,1c-.77.68-18.78,16.89-18.78,33.64,0,14.12,6,21.3,18.21,21.89v8.46h3.4V81.83c12.25-.59,18.21-7.77,18.21-21.89C77.47,43.19,59.46,27,58.69,26.3Zm.57,52.13V70.77L70.9,59.13l-2.41-2.41L59.26,66V54.58L66.86,47l-2.41-2.41-5.19,5.18v-10h-3.4v10l-5.19-5.18L48.26,47l7.6,7.59V66l-9.24-9.23-2.4,2.41L55.86,70.77v7.66c-7.23-.35-14.8-3.27-14.8-18.49,0-12.93,12.6-26.23,16.5-30,3.9,3.79,16.5,17.07,16.5,30C74.06,75.16,66.49,78.08,59.26,78.43Z"/><text class="cls-1" transform="matrix(0.21, -0.98, 0.98, 0.21, 12.85, 54.22)">U</text><text class="cls-1" transform="translate(15.44 42.73) rotate(-64.36)">S</text><text class="cls-1" transform="translate(19.43 34.11) rotate(-50.38)">D</text><text class="cls-1" transform="matrix(0.81, -0.58, 0.58, 0.81, 27.06, 24.93)">A</text><text class="cls-1" transform="matrix(0.9, -0.43, 0.43, 0.9, 36.73, 18.44)"> </text><text class="cls-1" transform="translate(40.7 16.26) rotate(-15.1)">C</text><text class="cls-1" transform="translate(51.51 13.47) rotate(-1.65)">E</text><text class="cls-1" transform="translate(61.32 13.17) rotate(11.38)">R</text><text class="cls-1" transform="translate(71.63 15.34) rotate(24.2)">T</text><text class="cls-1" transform="translate(80.37 19.52) rotate(34.04)">I</text><text class="cls-1" transform="translate(85.07 22.56) rotate(43.76)">F</text><text class="cls-1" transform="translate(91.86 29.38) rotate(53.51)">I</text><text class="cls-1" transform="matrix(0.45, 0.9, -0.9, 0.45, 95.3, 33.79)">E</text><text class="cls-1" transform="translate(99.75 42.44) rotate(77.81)">D</text><text class="cls-1" transform="matrix(0.76, 0.65, -0.65, 0.76, 16.23, 95.46)">O</text><text class="cls-1" transform="translate(28.97 105.68) rotate(25.55)">R</text><text class="cls-1" transform="translate(41.16 111.2) rotate(10.85)">G</text><text class="cls-1" transform="translate(56.02 113.59) rotate(-4.21)">A</text><text class="cls-1" transform="matrix(0.94, -0.34, 0.34, 0.94, 70.45, 112.17)">N</text><text class="cls-1" transform="translate(84.35 106.5) rotate(-31.41)">I</text><text class="cls-1" transform="translate(90.84 102.57) rotate(-42.22)">C</text><path d="M15.31,84.36h0a1.51,1.51,0,0,0,.45-2,48.2,48.2,0,0,1-6.48-20A1.5,1.5,0,0,0,7.74,61h0a1.5,1.5,0,0,0-1.45,1.62,51.36,51.36,0,0,0,6.9,21.32A1.51,1.51,0,0,0,15.31,84.36Z"/><path d="M107.36,61.23h0a1.5,1.5,0,0,0-1.55,1.37,48.1,48.1,0,0,1-6.07,19.11,1.51,1.51,0,0,0,.47,2h0a1.5,1.5,0,0,0,2.11-.5,51.16,51.16,0,0,0,6.48-20.38A1.5,1.5,0,0,0,107.36,61.23Z"/></g></g></svg>